<?xml version="1.0" encoding="UTF-8"?>
<svg id="Layer_2" data-name="Layer 2" xmlns="http://www.w3.org/2000/svg" viewBox="0 0 232.33 121.5">
  <defs>
    <style>
      .cls-1 {
        fill: #fff;
        stroke-width: 0px;
      }
    </style>
  </defs>
  <g id="Layer_1-2" data-name="Layer 1">
    <path class="cls-1" d="m232.33,84c0,20.71-16.79,37.5-37.5,37.5H37.5C16.79,121.5,0,104.71,0,84s16.79-37.5,37.5-37.5c4.83,0,9.45.92,13.7,2.58,3.99-10.36,14.04-17.72,25.8-17.72,3.05,0,5.98.49,8.72,1.41C92.2,13.71,110.25,0,131.5,0c26.69,0,48.33,21.64,48.33,48.33,0,.43-.01.87-.02,1.3,4.6-2.01,9.68-3.13,15.02-3.13,20.71,0,37.5,16.79,37.5,37.5Z"/>
  </g>
</svg>