<?xml version="1.0" encoding="utf-8"?>
<!-- Generator: Adobe Illustrator 27.8.1, SVG Export Plug-In . SVG Version: 6.00 Build 0)  -->
<svg version="1.1" id="Layer_1" xmlns="http://www.w3.org/2000/svg" xmlns:xlink="http://www.w3.org/1999/xlink" x="0px" y="0px"
	 viewBox="0 0 74.5 71" style="enable-background:new 0 0 74.5 71;" xml:space="preserve">
<style type="text/css">
	.st0{fill:#FFFFFF;}
</style>
<g id="Layer_1-2">
	<path class="st0" d="M36.1,41.6c-0.9,0-1.3,1-1.3,4.1c0,3,0.7,4.8,1.7,4.8c0.9,0,1.6-2.2,1.6-4.6C38.1,42.3,37.1,41.6,36.1,41.6z"
		/>
	<path class="st0" d="M30.4,27.3c0-0.9-0.6-1.6-1.5-1.7c-0.1,0-0.1,0-0.2,0c0,0.7,0,2.4,0,3.2C29.7,28.8,30.4,28.5,30.4,27.3z"/>
	<path class="st0" d="M13.1,27.3c0-0.9-0.6-1.6-1.5-1.7c-0.1,0-0.1,0-0.2,0c0,0.7,0,2.4,0,3.2C12.4,28.8,13.1,28.5,13.1,27.3z"/>
	<path class="st0" d="M38.7,27.3c0-0.9-0.6-1.6-1.5-1.7c-0.1,0-0.1,0-0.2,0c0,0.7,0,2.4,0,3.2C38,28.8,38.7,28.5,38.7,27.3z"/>
	<path class="st0" d="M11.4,30.8c0,0.5,0,1.4,0,2v1.7h0.3c1,0,1.6-0.5,1.6-2C13.3,31.2,12.5,30.8,11.4,30.8z"/>
	<path class="st0" d="M37.1,30.8c0,0.5,0,1.4,0,2v1.7h0.3c1,0,1.6-0.5,1.6-2C38.9,31.2,38.1,30.8,37.1,30.8z"/>
	<path class="st0" d="M28.7,30.8c0,0.5,0,1.4,0,2v1.7H29c1,0,1.6-0.5,1.6-2C30.6,31.2,29.8,30.8,28.7,30.8z"/>
	<path class="st0" d="M32.7,5.6C14.6,5.6,0,20.2,0,38.3S14.6,71,32.7,71s32.7-14.6,32.7-32.7S50.7,5.6,32.7,5.6
		C32.7,5.6,32.7,5.6,32.7,5.6z M49.9,23.5c1-0.1,2.3-0.1,2.8-0.1c0.7,0,2.9,0.1,4.1,0.1c-0.2,0.8-0.4,1.7-0.5,2.5
		c-1-0.1-2.3-0.2-3-0.2c-0.2,0-0.4,0-0.6,0c0,1,0,1.7,0,2.7c0.4,0,0.8,0,1.2,0c0.2,0,1.1-0.1,2.1-0.1c0,0.8,0,1.5,0,2.5
		c-0.9,0-1.3-0.1-2.1-0.2c-0.4,0-0.8-0.1-1.2-0.1c-0.1,1,0,2.6,0,3.8h0.7c0.2,0,2.2,0.1,3.4,0c-0.1,0.8-0.2,1.6-0.4,2.5
		c-0.8-0.1-1.8-0.1-2.6-0.1c-1.3,0-2.8-0.1-4-0.1c0-1.3,0.2-3.8,0.2-6C50,28,50,24.9,49.9,23.5z M42.8,26.9c0-1.1,0-2.2-0.1-3.4
		c1,0,2-0.1,3-0.3c0.1,1.6,0,8.9,0,11.2c1,0,2,0,3.6-0.1c-0.3,1.1-0.4,1.5-0.6,2.6c-0.8-0.1-1.6-0.2-2.3-0.2
		c-1.3-0.1-2.6-0.1-3.7-0.2C42.8,33.3,42.9,30.1,42.8,26.9z M28.4,23.4c2.7,0,4.6,1.6,4.6,3.5c0.2,1.3-0.6,2.5-1.9,3
		c1.2,0.4,2.1,1.5,2.2,2.8c0,2.1-1.5,4.1-4.7,4.1c-0.4,0-1.6,0-2.7,0c0.2-1.9,0.1-6.7,0.1-7.4s0-1.3,0-2.7c0-1,0-2.2-0.1-3.1
		C26.8,23.4,27.6,23.4,28.4,23.4z M19.9,23.2c-0.1,2,0,9.7,0,10.2c0,0.8,0.4,1.1,1.2,1.1c0.5,0,0.8-0.2,0.8-0.7s0.1-3.6,0-6
		c0-1.4-0.1-2.8-0.3-4.2c1.2-0.1,2-0.1,3-0.2c0.2,2.2,0.1,3.1,0.1,4.7c0,2.1,0,5,0,5.3c0,3.4-2.5,3.5-3.8,3.5c-1,0-2-0.3-2.8-0.9
		c-0.7-0.6-1.1-1.5-1.1-2.5c0-0.5,0-4.1-0.1-6.7c0-1.1-0.1-2.1-0.1-3.5C17.9,23.4,18.9,23.4,19.9,23.2z M11.1,23.4
		c2.7,0,4.6,1.6,4.6,3.5c0.2,1.3-0.6,2.5-1.9,3c1.2,0.4,2.1,1.5,2.2,2.8c0,2.1-1.5,4.1-4.7,4.1c-0.4,0-1.6,0-2.7,0
		c0.2-1.9,0.1-6.7,0.1-7.4s0-1.3,0-2.7c0-1,0-2.2-0.2-3.1C9.5,23.4,10.3,23.4,11.1,23.4z M14.7,53c-0.8-0.1-1.7-0.2-2.4-0.2
		c-1.3-0.1-2.7-0.1-3.8-0.2c0.2-3.3,0.3-6.5,0.2-9.8c0-1.1,0-2.3-0.1-3.4c1,0,2.1-0.1,3.1-0.3c0.1,1.6,0,9,0,11.3c1,0,2.1,0,3.6-0.1
		C15,51.5,14.9,51.9,14.7,53z M18.8,53.2c-0.9-0.2-1.9-0.3-2.8-0.3c0-2.3,0-9.9-0.1-13.7c1,0.2,2,0.3,3.1,0.4
		C18.9,41.2,18.8,48,18.8,53.2L18.8,53.2z M26,53.1c-4.8-1.2-6.2-3.2-6.2-7.3c0-3.6,2.2-6.6,5.5-6.6c0.3,0,0.6,0,0.9,0.1
		c-0.1,0.7-0.1,1.4,0,2.1c-1.9,0.2-3.5,0.9-3.5,4.4c0,3,0.9,4.1,3.7,4.8C26.2,51.4,26.1,52.3,26,53.1z M30.8,53.2
		c-0.9-0.2-1.8-0.3-2.8-0.3c0-2.3,0-9.9-0.1-13.7c1,0.2,2,0.3,3.1,0.4C30.9,41.2,30.7,48,30.8,53.2L30.8,53.2z M36.2,53
		c-2.1,0-4.4-2.3-4.4-7.1c0-5.1,1.5-6.7,4.5-6.7c2.3,0,4.8,1.5,4.8,6.6S38,53,36.2,53z M37,36.7c-0.4,0-1.6,0-2.7,0
		c0.2-1.9,0.1-6.7,0.1-7.4s0-1.3,0-2.7c0-1,0-2.2-0.2-3.1c0.9,0,1.7,0,2.5,0c2.7,0,4.6,1.6,4.6,3.5c0.2,1.3-0.6,2.5-1.8,3
		c1.2,0.4,2.1,1.5,2.2,2.8C41.7,34.6,40.2,36.7,37,36.7z M49.9,44.1c0,2.1,0,5.1,0,5.4c0,3.5-2.5,3.5-3.9,3.5c-1,0-2.1-0.3-2.9-0.9
		c-0.7-0.6-1.1-1.5-1.1-2.5c0-0.5,0-4.2-0.1-6.8c0-1.1-0.1-2.1-0.1-3.5c1,0,2,0,3-0.1c-0.1,2,0,9.8,0,10.3c0,0.8,0.3,1.1,1.2,1.1
		c0.5,0,0.9-0.2,0.9-0.8s0.1-3.6,0-6.1c0-1.4-0.1-2.8-0.3-4.3c1.3-0.1,2-0.1,3.1-0.2C50,41.5,49.9,42.4,49.9,44.1z M51,53.3
		c0.1-0.9,0.1-1.8,0-2.7c2.1,0,3.1-0.5,3.1-1.2c0-1-0.8-1.9-1.5-2.9c-1-1-1.7-2.4-1.8-3.8c0-2.2,1.4-3.5,6-3.6
		c-0.1,0.8-0.1,1.6,0,2.4c-2.1,0.1-3.2,0.2-3.2,1c0.2,1,0.7,1.9,1.5,2.6c0.9,1.2,1.8,2.6,1.8,4C56.8,51.7,55.8,52.9,51,53.3z"/>
	<path class="st0" d="M66.8,6.2c0,3.4-2.8,6.2-6.2,6.2s-6.2-2.8-6.2-6.2S57.2,0,60.6,0c0,0,0,0,0,0C64.1,0,66.8,2.8,66.8,6.2z"/>
	<path class="st0" d="M70.7,17.9c0,2.1-1.7,3.8-3.8,3.8c-2.1,0-3.8-1.7-3.8-3.8c0-2.1,1.7-3.8,3.8-3.8c0,0,0,0,0,0
		C68.9,14.1,70.7,15.8,70.7,17.9C70.7,17.9,70.7,17.9,70.7,17.9z"/>
	<path class="st0" d="M74.5,9.7c0,1.5-1.2,2.7-2.7,2.7c-1.5,0-2.7-1.2-2.7-2.7s1.2-2.7,2.7-2.7c0,0,0,0,0,0
		C73.3,7.1,74.5,8.3,74.5,9.7z"/>
</g>
</svg>
